<svg xmlns="http://www.w3.org/2000/svg" width="2048" height="2048" viewBox="0 0 2048 2048"><rect width="100%" height="100%" fill="#fff"/><g transform="translate(468.58,163.84) scale(1.22880)"><g transform="scale(1.0)"><g transform="translate(0.000000,1400.000000) scale(0.100000,-0.100000)"
fill="#000000" stroke="none">
<path d="M4148 13549 c-228 -80 -366 -261 -402 -528 -9 -67 -28 -157 -41 -199
-13 -42 -31 -117 -40 -167 -10 -49 -28 -119 -41 -155 -13 -36 -28 -99 -34
-140 -7 -41 -22 -99 -36 -128 -13 -29 -28 -81 -34 -115 -24 -136 -31 -159 -58
-220 -16 -34 -32 -75 -36 -92 -4 -16 -21 -51 -37 -76 -16 -25 -34 -61 -40 -80
-11 -31 -25 -57 -103 -189 -15 -25 -47 -72 -71 -105 -24 -33 -56 -80 -71 -105
-15 -25 -49 -74 -74 -110 -43 -59 -148 -269 -165 -330 -4 -14 -22 -56 -41 -95
-40 -85 -87 -305 -109 -503 -8 -75 -19 -151 -24 -169 -5 -18 -12 -63 -16 -100
-3 -37 -15 -106 -25 -153 -11 -47 -24 -132 -29 -190 -6 -58 -21 -151 -35 -207
-13 -56 -27 -140 -31 -185 -8 -98 -42 -338 -55 -389 -5 -19 -19 -98 -30 -175
-50 -337 -71 -384 -149 -319 -43 37 -284 401 -317 480 -9 22 -28 58 -43 80
-65 95 -176 328 -201 420 -11 40 -28 95 -38 122 -11 26 -25 73 -32 103 -6 30
-23 91 -36 134 -18 57 -29 129 -39 260 -8 100 -21 228 -29 286 -32 223 -55
409 -66 515 -6 61 -22 171 -35 245 -13 74 -29 202 -35 283 -5 82 -14 167 -19
190 -6 23 -21 115 -35 205 -47 303 -197 559 -355 606 -26 8 -66 23 -87 34 -58
30 -99 35 -189 23 -178 -23 -321 -108 -383 -226 -35 -68 -39 -226 -18 -655 8
-179 18 -437 21 -575 6 -248 25 -729 45 -1085 5 -102 12 -255 15 -340 11 -299
57 -528 178 -885 99 -291 176 -504 209 -580 19 -44 39 -96 43 -115 4 -19 20
-60 36 -90 15 -30 33 -80 40 -110 6 -30 19 -70 30 -87 10 -18 31 -70 48 -115
16 -46 41 -114 55 -153 14 -38 26 -86 26 -106 0 -20 7 -58 15 -85 20 -64 30
-499 15 -669 -6 -66 -17 -214 -25 -330 -19 -281 -35 -467 -40 -475 -14 -23
-37 -221 -44 -385 -5 -104 -18 -255 -30 -335 -66 -474 -71 -1259 -9 -1505 32
-125 14 -255 -69 -505 -19 -58 -39 -127 -45 -155 -12 -64 -32 -138 -52 -195
-9 -25 -23 -90 -32 -145 -9 -55 -24 -134 -34 -175 -19 -79 -51 -241 -74 -375
-8 -44 -26 -135 -40 -203 -14 -68 -33 -180 -41 -250 -9 -70 -23 -156 -31 -192
-8 -36 -26 -138 -39 -228 -14 -89 -34 -188 -45 -219 -42 -119 -21 -203 50
-203 51 0 84 39 100 117 7 32 23 101 36 153 26 104 37 172 60 354 8 65 17 122
19 126 11 18 37 164 50 281 7 69 23 161 34 205 11 43 36 156 55 249 19 94 39
184 46 200 6 17 20 77 31 135 16 88 60 282 100 441 22 87 57 56 158 -134 147
-276 381 -490 594 -543 34 -9 87 -25 117 -36 109 -42 476 -33 599 14 14 5 69
13 124 18 61 6 132 21 185 39 48 16 114 34 147 41 33 6 92 22 130 34 39 13
123 41 188 62 124 40 157 63 157 109 0 76 -85 89 -235 37 -49 -17 -121 -39
-160 -47 -38 -9 -110 -29 -160 -45 -49 -16 -121 -34 -159 -40 -38 -6 -85 -18
-105 -26 -94 -41 -440 -65 -626 -44 -259 30 -529 233 -650 490 -26 54 -82 165
-124 245 -12 21 -21 47 -21 56 0 9 -16 68 -35 130 -34 110 -46 179 -65 374 -5
50 -14 133 -20 185 -23 186 19 1111 60 1311 5 25 16 140 25 255 8 115 18 223
21 239 2 17 11 104 19 195 8 91 21 219 29 285 31 252 38 412 34 755 -5 379
-18 467 -97 649 -16 36 -36 93 -45 126 -9 33 -34 107 -57 165 -22 58 -58 157
-79 222 -21 64 -47 133 -58 155 -11 21 -24 61 -30 88 -6 28 -30 97 -52 155
-66 168 -109 287 -145 406 -19 61 -43 131 -54 157 -30 71 -69 277 -81 432 -13
182 -40 925 -40 1128 0 198 -14 502 -50 1062 -18 271 -17 446 2 480 70 127
278 182 422 111 146 -72 227 -200 268 -426 11 -58 28 -148 39 -200 10 -52 23
-142 29 -200 5 -58 16 -143 25 -190 16 -89 36 -272 60 -555 8 -93 26 -240 40
-325 15 -85 30 -209 36 -275 5 -66 20 -163 33 -215 14 -52 30 -122 36 -155 6
-33 24 -100 40 -150 15 -49 31 -106 35 -125 14 -72 228 -523 299 -632 17 -25
45 -70 63 -100 52 -87 218 -305 323 -425 181 -204 275 -268 336 -228 31 20 30
39 -4 111 -43 93 -33 284 33 679 13 77 27 174 30 215 4 41 19 129 35 195 16
66 34 174 40 240 14 144 34 262 60 357 10 38 24 115 30 171 6 56 22 141 35
188 14 48 29 136 34 195 17 183 79 436 131 528 17 29 30 59 30 68 0 8 17 41
38 74 21 32 44 74 50 93 7 19 18 42 26 50 7 9 35 48 61 86 239 351 284 423
310 505 10 30 28 75 40 100 13 25 32 80 44 123 12 43 30 95 40 115 10 20 24
68 30 106 7 37 22 96 35 130 13 34 36 123 50 197 15 74 38 168 51 209 12 41
28 110 35 154 6 43 22 106 35 140 12 33 28 101 34 149 15 111 21 128 76 191
34 40 64 62 125 90 80 38 82 38 183 34 280 -10 395 -187 397 -609 1 -174 -9
-255 -45 -369 -8 -25 -17 -67 -21 -95 -3 -27 -21 -97 -40 -155 -52 -166 -82
-274 -119 -435 -19 -82 -66 -247 -106 -365 -39 -118 -81 -263 -94 -321 -13
-59 -35 -133 -48 -165 -13 -33 -32 -93 -42 -134 -10 -41 -24 -88 -32 -103 -8
-16 -20 -64 -28 -108 -8 -44 -23 -105 -34 -137 -71 -198 -119 -901 -116 -1677
2 -451 3 -458 69 -471 93 -17 106 15 99 253 -4 166 -3 186 15 227 25 56 32 60
219 107 85 22 172 48 192 58 20 11 66 25 101 31 35 6 91 22 124 35 34 13 117
33 186 45 69 12 159 31 200 42 127 36 138 35 242 -15 91 -44 97 -49 328 -284
129 -131 321 -331 426 -443 105 -113 242 -259 303 -325 62 -66 122 -138 133
-160 12 -22 31 -53 43 -70 12 -16 29 -51 39 -76 9 -25 27 -61 41 -79 14 -18
27 -50 31 -69 3 -20 14 -65 25 -101 10 -36 35 -150 55 -255 20 -104 47 -233
60 -285 13 -52 33 -151 44 -219 12 -69 37 -188 56 -265 19 -77 34 -159 34
-183 0 -23 14 -83 30 -133 36 -107 35 -104 10 -183 -38 -113 -38 -113 -112
-152 -65 -35 -76 -37 -132 -32 -95 8 -217 51 -278 99 -306 239 -517 518 -543
717 -4 30 -16 79 -26 109 -10 30 -24 85 -30 121 -23 128 -68 212 -194 357
-143 165 -273 342 -322 437 -13 27 -57 82 -96 123 -89 92 -120 101 -291 82
-161 -18 -372 -12 -468 14 -112 30 -164 3 -144 -76 10 -39 135 -102 230 -115
112 -16 275 -13 363 5 139 28 199 0 291 -141 15 -22 52 -74 83 -115 31 -41 77
-106 103 -145 25 -38 77 -107 114 -151 144 -175 157 -200 187 -369 37 -207 81
-324 195 -510 117 -191 107 -171 120 -250 6 -37 24 -92 39 -123 16 -32 34 -74
39 -96 25 -90 228 -328 320 -375 80 -41 152 -143 152 -217 0 -11 13 -40 28
-65 15 -24 36 -64 46 -88 25 -65 103 -190 146 -236 20 -22 46 -53 57 -70 29
-41 329 -264 386 -285 25 -10 58 -27 73 -39 54 -42 134 -18 150 45 9 35 -21
74 -71 91 -21 7 -62 31 -90 52 -29 22 -69 47 -89 55 -73 30 -282 229 -333 316
-15 25 -39 61 -55 82 -16 20 -35 54 -42 76 -8 21 -24 59 -37 83 -25 49 -38
197 -25 284 10 63 71 122 180 174 96 46 173 119 226 213 37 66 113 128 155
128 40 0 146 -42 173 -69 15 -15 59 -52 97 -83 39 -31 99 -84 135 -119 69 -67
148 -135 276 -236 166 -132 194 -153 237 -180 55 -34 139 -128 156 -174 7 -19
22 -58 33 -87 23 -60 21 -149 -7 -252 -9 -30 -22 -86 -30 -125 -43 -195 -274
-378 -515 -406 -47 -5 -123 -14 -170 -19 -177 -20 -236 -29 -285 -44 -29 -9
-87 -16 -138 -16 -56 0 -113 -7 -159 -20 -40 -11 -85 -20 -101 -20 -24 0 -137
-36 -397 -129 -42 -15 -91 -38 -110 -53 -19 -14 -53 -33 -75 -42 -22 -10 -49
-25 -60 -36 -11 -10 -45 -29 -75 -43 -30 -14 -70 -37 -89 -51 -19 -14 -40 -26
-46 -26 -6 0 -33 -15 -61 -32 -52 -34 -128 -79 -205 -122 -26 -14 -91 -54
-145 -90 -55 -35 -130 -84 -169 -109 -199 -125 -246 -156 -315 -207 -97 -72
-203 -142 -260 -170 -25 -12 -52 -29 -61 -36 -44 -39 -502 -255 -570 -269 -19
-4 -90 -22 -159 -40 -69 -18 -168 -41 -220 -50 -179 -30 -196 -39 -274 -149
-61 -85 -121 -269 -146 -451 -6 -44 -22 -120 -35 -170 -13 -49 -29 -148 -35
-220 -6 -71 -24 -227 -40 -345 -26 -194 -44 -476 -45 -676 0 -86 20 -124 64
-124 87 0 118 133 141 615 11 223 17 288 61 595 22 155 97 491 129 578 50 133
70 152 175 166 28 4 77 16 110 26 33 11 128 37 212 59 90 24 197 61 260 89 59
27 119 53 133 57 35 11 202 94 220 110 8 8 65 39 125 70 61 31 126 68 145 84
140 110 408 287 555 365 22 11 58 34 80 49 39 27 111 73 320 202 55 33 145 85
200 114 55 30 135 76 177 103 42 27 121 65 175 84 54 19 128 46 165 59 90 32
425 95 508 95 37 0 92 5 121 10 30 6 119 20 199 31 80 11 165 26 190 34 25 8
81 21 125 30 53 10 98 26 135 48 30 19 71 40 90 47 113 44 278 268 330 448 41
143 26 451 -26 528 -14 19 -33 53 -44 74 -21 40 -154 164 -247 229 -54 38
-360 293 -498 416 -179 158 -316 234 -447 245 -120 11 -150 45 -169 193 -5 43
-21 109 -35 145 -14 37 -29 106 -35 154 -5 47 -20 130 -34 184 -14 53 -39 178
-55 278 -46 276 -103 516 -140 584 -11 21 -35 71 -54 112 -33 70 -105 171
-229 317 -29 34 -74 90 -102 124 -57 72 -102 119 -198 206 -91 82 -142 149
-157 202 -14 53 -9 76 34 161 18 36 39 81 45 101 6 19 43 98 81 174 39 76 70
144 70 151 0 7 16 43 36 81 20 37 43 91 51 118 9 28 24 62 35 77 10 15 27 52
38 82 10 30 30 74 44 98 14 24 30 66 36 94 6 28 26 75 45 103 18 29 36 68 40
87 3 19 15 56 27 82 51 117 146 365 195 512 14 41 36 102 49 135 13 33 30 87
38 121 9 33 23 80 31 105 117 325 216 805 236 1144 36 606 -83 869 -445 983
-148 46 -235 44 -312 -9 -28 -19 -65 -41 -81 -50 -35 -19 -119 -136 -144 -199
-9 -25 -24 -90 -33 -145 -9 -55 -25 -140 -36 -190 -10 -49 -28 -158 -39 -242
-13 -97 -27 -165 -40 -190 -10 -21 -26 -78 -34 -126 -8 -48 -25 -102 -36 -120
-11 -19 -28 -64 -36 -102 -9 -37 -29 -93 -44 -124 -16 -31 -34 -83 -41 -116
-6 -33 -25 -81 -42 -108 -17 -26 -34 -66 -40 -89 -10 -44 -77 -195 -183 -413
-35 -71 -85 -179 -110 -240 -26 -60 -53 -117 -61 -126 -8 -9 -46 -78 -84 -153
-38 -75 -77 -149 -88 -164 -10 -15 -25 -42 -32 -61 -7 -18 -24 -46 -37 -62
-13 -16 -35 -55 -48 -88 -13 -34 -32 -73 -43 -88 -10 -16 -50 -85 -88 -156
-38 -70 -89 -164 -114 -210 -144 -265 -210 -320 -442 -364 -73 -13 -177 -40
-231 -59 -114 -40 -139 -42 -168 -13 -32 32 -18 634 21 909 38 262 61 402 75
448 9 30 27 106 40 170 14 65 63 234 109 377 101 310 216 706 251 863 14 63
35 144 49 180 13 37 26 90 30 117 4 28 20 88 36 135 95 278 111 384 101 635
-7 173 -12 210 -34 275 -13 41 -30 93 -36 116 -20 73 -179 257 -256 296 -116
59 -293 70 -417 27z m2665 -689 c123 -20 260 -136 292 -248 10 -31 30 -84 45
-117 45 -97 43 -370 -4 -655 -19 -113 -38 -229 -41 -259 -4 -30 -20 -92 -36
-138 -15 -46 -35 -123 -43 -171 -8 -48 -26 -117 -40 -153 -13 -36 -30 -94 -36
-129 -6 -35 -20 -81 -31 -101 -10 -21 -30 -80 -43 -131 -14 -51 -46 -151 -71
-223 -26 -71 -62 -173 -80 -225 -17 -52 -44 -118 -57 -145 -14 -28 -36 -84
-48 -125 -12 -41 -44 -121 -70 -177 -26 -55 -60 -139 -75 -185 -15 -45 -71
-173 -125 -283 -53 -110 -105 -223 -114 -251 -9 -28 -30 -73 -47 -100 -17 -26
-37 -68 -44 -91 -7 -24 -26 -65 -42 -91 -15 -26 -35 -60 -43 -77 -29 -56 -53
-47 -172 67 -240 232 -282 270 -307 281 -14 6 -51 26 -82 44 -88 53 -147 65
-240 49 -84 -15 -122 -12 -140 11 -15 17 10 71 100 222 31 53 66 119 77 146
12 28 35 72 53 99 17 28 31 54 31 59 0 5 10 23 23 40 20 29 54 91 219 407 91
174 129 245 148 280 49 88 161 328 171 364 6 23 26 69 45 103 19 33 55 114 80
180 26 65 55 135 66 156 18 36 74 183 103 272 39 120 141 504 160 605 7 36 23
121 35 190 12 69 28 152 35 185 8 33 16 81 19 108 11 94 101 196 183 208 72
10 83 10 146 -1z m-332 -7158 c13 -10 49 -30 79 -45 75 -36 140 -97 140 -131
0 -38 -43 -79 -72 -70 -58 18 -190 169 -198 224 -7 44 11 52 51 22z"/>
<path d="M2439 6871 c-23 -19 -24 -24 -23 -148 0 -132 25 -257 84 -428 11 -33
28 -87 36 -120 20 -76 96 -269 129 -326 14 -24 30 -62 36 -84 11 -41 126 -259
185 -353 19 -29 45 -79 58 -111 13 -33 38 -80 56 -106 17 -25 47 -80 66 -123
19 -42 70 -147 113 -232 44 -85 86 -178 94 -205 8 -28 29 -84 45 -125 42 -100
93 -273 133 -450 44 -192 50 -510 12 -640 -12 -41 -27 -110 -32 -152 -6 -43
-22 -105 -35 -138 -42 -103 -54 -204 -29 -238 27 -36 42 -37 83 -10 52 35 89
95 100 163 6 33 21 96 34 140 13 44 29 130 35 190 7 61 17 155 22 209 15 141
-2 448 -30 536 -12 36 -33 117 -47 180 -25 112 -81 268 -149 420 -18 41 -37
86 -41 100 -9 33 -78 173 -184 375 -32 61 -80 153 -107 205 -28 52 -79 147
-113 210 -35 63 -88 164 -117 224 -30 60 -63 122 -74 137 -10 15 -29 65 -40
111 -11 45 -32 106 -45 134 -22 47 -57 163 -88 296 -8 31 -17 119 -21 194 -7
125 -10 140 -31 161 -29 29 -82 31 -115 4z"/>
<path d="M5419 1933 c-32 -13 -48 -55 -29 -78 15 -18 73 -35 117 -35 19 0 43
-9 58 -22 26 -23 26 -23 27 -599 1 -524 -1 -579 -16 -611 -18 -38 -55 -58
-103 -58 -27 0 -83 -50 -83 -73 0 -8 8 -25 18 -37 18 -22 19 -22 368 -24 336
-2 378 1 396 28 26 39 -25 106 -82 106 -44 0 -81 26 -102 72 -13 27 -14 70
-10 237 6 256 3 251 141 251 124 0 227 17 284 46 27 14 72 34 101 44 58 22
110 71 174 165 42 61 42 61 42 176 0 115 0 115 -49 179 -79 105 -130 148 -182
158 -26 5 -70 23 -100 39 -30 17 -67 34 -84 39 -49 14 -853 11 -886 -3z m723
-112 c49 -11 144 -93 157 -134 17 -57 22 -160 12 -256 -10 -92 -11 -95 -53
-138 -63 -65 -84 -73 -186 -73 -101 0 -120 10 -107 57 9 35 10 439 1 473 -10
37 12 60 69 69 68 12 65 12 107 2z"/>
</g></g></g></svg>