<svg xmlns="http://www.w3.org/2000/svg" width="2048" height="2048" viewBox="0 0 2048 2048"><rect width="100%" height="100%" fill="#fff"/><g transform="translate(519.44,163.84) scale(1.20134)"><g transform="scale(1.0)"><g transform="translate(0.000000,1432.000000) scale(0.100000,-0.100000)"
fill="#000000" stroke="none">
<path d="M4740 13936 c-26 -6 -63 -22 -83 -35 -44 -27 -197 -215 -197 -241 0
-10 -15 -48 -34 -83 -18 -36 -39 -89 -46 -119 -7 -29 -25 -87 -40 -128 -15
-41 -35 -109 -43 -151 -9 -41 -25 -98 -36 -127 -12 -29 -27 -84 -35 -122 -8
-39 -26 -96 -39 -128 -14 -31 -34 -84 -45 -117 -36 -109 -119 -319 -149 -380
-17 -33 -43 -89 -57 -124 -15 -35 -37 -80 -50 -100 -23 -37 -132 -241 -221
-416 -29 -55 -84 -158 -124 -230 -40 -71 -85 -157 -100 -190 -16 -33 -43 -83
-62 -111 -19 -28 -39 -60 -45 -70 -44 -72 -38 114 6 214 12 26 27 92 35 147 7
55 25 147 38 205 14 58 28 137 32 175 3 39 13 109 21 157 22 131 34 355 33
638 0 615 -93 926 -339 1136 -96 82 -193 101 -351 70 -236 -47 -385 -193 -408
-401 -11 -94 3 -382 25 -530 14 -89 19 -177 18 -340 0 -276 -8 -317 -164 -900
-12 -44 -34 -127 -50 -185 -15 -58 -38 -130 -50 -160 -32 -78 -37 -99 -70
-255 -61 -292 -69 -326 -93 -387 -14 -35 -28 -90 -32 -123 -10 -97 -26 -168
-46 -207 -10 -20 -26 -79 -34 -130 -8 -51 -29 -156 -45 -233 -17 -77 -38 -177
-46 -222 -10 -51 -23 -88 -34 -98 -38 -35 -42 2 -35 393 3 202 6 600 6 884 0
543 2 508 -46 767 -14 70 -55 164 -145 326 -48 86 -158 190 -260 246 -109 60
-153 72 -270 73 -118 1 -179 -24 -255 -103 -107 -111 -115 -151 -125 -586 -12
-540 -40 -1021 -71 -1235 -12 -79 -35 -365 -49 -592 -6 -91 -17 -206 -26 -255
-16 -95 -29 -206 -44 -403 -6 -69 -17 -163 -25 -210 -31 -180 -8 -440 56 -620
11 -30 31 -89 44 -130 13 -41 36 -91 50 -110 14 -19 30 -53 36 -75 6 -22 22
-57 36 -79 24 -38 60 -118 109 -246 14 -36 36 -81 49 -100 14 -19 34 -62 45
-95 11 -32 27 -69 35 -82 9 -13 28 -56 44 -96 16 -39 53 -128 83 -197 62 -141
94 -252 135 -455 26 -137 27 -147 26 -475 -1 -199 -8 -412 -17 -525 -8 -104
-20 -284 -26 -400 -25 -492 -47 -782 -70 -931 -11 -67 -26 -196 -35 -288 -16
-180 -43 -375 -75 -551 -11 -60 -27 -164 -35 -230 -8 -66 -24 -156 -35 -200
-11 -44 -31 -147 -46 -229 -14 -81 -36 -183 -48 -225 -13 -42 -27 -103 -31
-136 -4 -33 -18 -98 -32 -145 -14 -47 -28 -112 -33 -146 -4 -33 -19 -85 -33
-115 -14 -30 -33 -94 -42 -143 -9 -49 -28 -125 -42 -169 -14 -45 -38 -142 -53
-217 -45 -217 -78 -358 -106 -458 -14 -53 -29 -141 -34 -205 -5 -62 -16 -132
-24 -156 -9 -24 -16 -54 -16 -68 0 -62 64 -117 109 -94 44 24 94 169 106 307
9 111 32 244 60 349 13 50 27 119 30 155 4 36 20 99 35 140 16 41 40 127 55
190 15 63 34 131 42 150 7 19 16 61 20 95 13 136 73 143 123 15 12 -30 32 -66
44 -80 13 -14 48 -63 78 -110 86 -133 262 -306 368 -362 145 -77 319 -122 470
-123 155 0 306 17 430 49 52 14 127 32 165 42 227 54 235 57 355 108 253 109
308 159 245 222 -34 34 -90 29 -200 -16 -179 -73 -235 -94 -345 -126 -63 -19
-123 -34 -132 -34 -10 0 -57 -13 -105 -29 -149 -49 -486 -60 -653 -20 -150 35
-418 270 -520 454 -18 33 -46 84 -62 113 -17 29 -37 79 -45 110 -8 31 -23 72
-32 92 -42 83 -34 342 18 546 16 66 33 139 36 164 4 25 28 155 55 290 26 135
51 279 54 320 4 41 13 113 21 160 8 47 19 135 25 195 6 61 17 178 25 260 8 83
23 213 34 290 26 181 40 366 51 642 4 121 10 226 14 231 11 18 36 620 36 870
0 464 -70 772 -269 1177 -33 66 -78 165 -100 220 -23 55 -52 120 -65 145 -14
25 -34 72 -47 105 -12 33 -64 148 -116 255 -54 112 -101 223 -109 260 -8 36
-23 92 -34 125 -13 43 -20 105 -24 215 -6 152 -3 180 28 385 8 55 20 177 26
270 6 94 24 267 40 385 16 118 34 292 40 385 6 94 15 208 20 255 47 409 82
1049 77 1415 -2 190 -2 190 30 251 49 94 92 112 230 96 124 -14 125 -14 235
-115 95 -88 160 -178 178 -247 7 -25 22 -70 35 -100 55 -131 58 -224 48 -1255
-10 -1099 -8 -1162 55 -1406 23 -86 52 -183 65 -216 13 -33 30 -82 36 -111 7
-28 25 -70 40 -94 16 -24 36 -69 46 -99 9 -30 28 -70 40 -90 13 -20 31 -63 41
-95 9 -32 27 -74 40 -94 12 -19 28 -55 34 -80 7 -25 21 -63 33 -85 11 -22 35
-74 53 -115 17 -41 43 -104 58 -139 37 -86 105 -199 134 -222 33 -25 48 -24
79 7 34 34 28 85 -20 191 -74 159 -121 270 -147 348 -16 44 -40 100 -54 125
-14 25 -26 51 -26 59 0 8 -18 51 -39 95 -61 124 -119 258 -127 291 -4 17 -20
63 -36 104 -38 94 -35 175 13 431 6 30 15 100 19 155 11 127 35 273 60 350 10
33 22 78 25 100 7 40 45 209 110 485 19 80 39 174 45 210 6 36 26 112 45 170
19 58 53 184 76 280 23 96 61 236 85 310 83 263 124 398 138 461 8 35 28 125
45 199 66 296 84 686 45 970 -24 180 -26 498 -2 551 54 121 306 219 422 164
99 -47 225 -235 246 -367 5 -37 19 -95 30 -130 11 -35 26 -112 33 -173 21
-190 6 -841 -22 -968 -6 -23 -21 -129 -35 -235 -14 -107 -28 -197 -30 -200 -2
-4 -9 -43 -15 -87 -12 -83 -19 -118 -75 -350 -19 -77 -39 -185 -45 -240 -7
-55 -20 -137 -31 -182 -11 -45 -24 -121 -30 -170 -6 -48 -13 -97 -16 -108 -23
-93 -18 -1335 5 -1555 17 -157 97 -317 223 -447 67 -70 109 -82 148 -43 31 31
24 57 -34 134 -60 78 -139 234 -155 307 -6 25 -15 203 -21 395 -6 192 -15 487
-20 655 -11 332 -2 440 50 596 24 72 119 257 165 323 18 25 47 74 64 110 18
35 36 69 41 75 5 6 33 57 62 115 30 58 86 160 126 226 39 67 81 147 92 178 12
30 26 59 32 62 6 4 26 41 46 83 19 42 43 87 52 101 10 14 47 81 83 150 35 69
76 145 91 170 14 25 26 52 26 60 0 8 18 51 39 95 70 142 101 211 125 281 13
38 39 114 58 169 20 56 43 115 52 133 9 17 23 69 32 114 9 45 26 109 40 141
13 33 28 87 34 121 6 33 24 100 40 148 17 47 30 96 30 108 0 46 88 193 155
260 66 65 66 65 123 64 101 -1 228 -80 278 -174 13 -25 34 -57 45 -71 66 -83
57 -704 -12 -884 -11 -27 -26 -81 -35 -120 -8 -38 -26 -94 -39 -124 -14 -30
-32 -81 -41 -114 -8 -33 -26 -81 -39 -106 -12 -25 -30 -70 -39 -100 -8 -29
-27 -76 -40 -105 -31 -62 -64 -145 -120 -296 -24 -63 -65 -167 -91 -230 -26
-63 -54 -137 -62 -165 -8 -27 -30 -79 -48 -115 -18 -36 -42 -94 -55 -130 -12
-36 -29 -77 -36 -91 -19 -39 -143 -360 -179 -464 -39 -116 -85 -289 -95 -355
-5 -41 -21 -154 -35 -250 -37 -260 -30 -661 15 -850 5 -25 14 -91 20 -148 12
-132 26 -177 71 -224 59 -62 106 -44 129 50 19 81 87 139 377 323 147 93 344
219 416 267 83 55 161 87 264 108 120 25 153 16 473 -142 320 -158 391 -192
560 -270 69 -32 136 -65 150 -74 14 -10 54 -32 90 -50 124 -62 270 -184 270
-225 0 -7 15 -35 33 -61 18 -27 93 -170 166 -319 167 -339 246 -495 288 -565
99 -166 125 -249 98 -310 -40 -88 -117 -131 -238 -131 -138 0 -201 24 -403
158 -72 47 -186 168 -217 230 -15 28 -38 68 -51 87 -13 20 -29 58 -35 85 -11
52 -70 177 -108 229 -30 40 -91 72 -139 72 -32 0 -183 37 -294 72 -38 12 -156
85 -208 130 -118 101 -173 93 -347 -52 -33 -28 -73 -58 -88 -68 -16 -9 -58
-36 -94 -59 -36 -24 -74 -43 -85 -43 -10 0 -51 -13 -91 -29 -39 -17 -97 -37
-127 -45 -96 -26 -160 -94 -198 -208 -16 -51 -33 -109 -37 -128 -11 -55 -109
-237 -174 -325 -74 -98 -101 -152 -101 -196 0 -40 129 -301 184 -374 20 -25
36 -51 36 -57 0 -6 30 -51 66 -99 113 -152 286 -270 469 -322 260 -73 232 -69
482 -65 185 4 237 8 273 22 25 9 90 24 145 32 147 22 269 52 364 90 147 59
175 45 192 -93 6 -43 16 -89 24 -103 7 -14 29 -56 49 -95 97 -187 355 -362
444 -299 61 43 49 104 -28 129 -54 18 -185 107 -204 138 -7 12 -31 52 -54 88
-28 43 -46 86 -53 125 -6 32 -17 84 -25 114 -42 158 67 510 202 653 47 50 47
50 118 42 198 -22 264 -6 398 95 51 39 103 70 115 70 21 0 63 -42 63 -64 0 -7
14 -32 32 -56 31 -42 32 -45 30 -138 -3 -91 -7 -112 -50 -217 -69 -171 -86
-245 -90 -392 -2 -79 1 -187 7 -241 22 -201 -59 -335 -267 -441 -22 -11 -52
-31 -68 -44 -16 -13 -74 -48 -128 -77 -54 -29 -121 -68 -148 -87 -28 -18 -55
-33 -60 -33 -29 0 -511 -314 -609 -397 -31 -27 -90 -75 -130 -108 -101 -82
-253 -229 -304 -295 -24 -30 -79 -92 -123 -138 -76 -78 -159 -188 -247 -326
-22 -34 -67 -99 -100 -143 -33 -44 -85 -115 -115 -159 -30 -43 -82 -108 -115
-144 -60 -64 -116 -132 -167 -200 -14 -20 -41 -52 -59 -71 -19 -19 -43 -46
-55 -59 -65 -77 -441 -413 -491 -438 -15 -8 -50 -34 -78 -57 -27 -23 -73 -56
-101 -73 -28 -18 -60 -42 -70 -53 -10 -12 -39 -35 -64 -52 -25 -17 -78 -58
-118 -92 -40 -33 -98 -76 -127 -96 -238 -156 -387 -360 -438 -604 -32 -152
-63 -326 -77 -435 -7 -47 -22 -137 -35 -200 -12 -63 -26 -142 -29 -175 -4 -33
-20 -136 -35 -230 -71 -423 -68 -484 25 -485 68 0 85 39 114 270 12 90 23 167
26 171 2 4 17 87 33 185 17 99 51 298 76 444 24 146 45 288 45 316 0 189 174
484 338 573 31 17 93 62 137 101 44 39 108 89 143 111 34 23 62 45 62 50 0 5
31 29 69 53 38 25 72 49 75 55 4 5 32 24 63 42 31 18 80 53 108 78 29 25 85
74 126 107 101 85 342 325 409 409 30 38 78 92 106 120 28 28 69 76 91 106 23
30 64 81 92 114 77 91 173 227 300 425 16 25 44 63 61 85 17 22 41 54 53 72
70 101 432 470 552 561 33 25 76 60 95 77 54 47 295 205 444 290 29 17 67 41
85 54 17 13 63 38 101 57 38 18 108 58 155 89 46 31 93 59 102 63 115 47 308
210 380 322 55 85 63 128 63 365 0 255 9 343 49 460 55 166 75 375 46 487 -25
100 -51 142 -148 244 -51 52 -98 112 -106 132 -8 20 -25 52 -38 69 -13 18 -30
50 -38 70 -7 21 -55 119 -105 218 -168 329 -199 390 -224 445 -14 30 -34 71
-45 90 -11 19 -33 65 -49 101 -38 86 -143 250 -202 316 -55 63 -222 185 -300
220 -128 58 -243 114 -420 205 -36 18 -94 46 -130 62 -88 39 -302 140 -371
176 -76 39 -233 89 -305 96 -69 7 -202 -33 -283 -86 -26 -16 -64 -36 -86 -45
-22 -9 -62 -32 -90 -50 -27 -18 -90 -56 -140 -85 -49 -29 -99 -60 -110 -70
-11 -10 -65 -44 -120 -75 -55 -31 -109 -65 -120 -74 -11 -10 -55 -37 -99 -60
-121 -66 -140 -53 -155 101 -34 332 -16 761 38 933 11 33 25 92 31 130 6 39
31 130 56 204 24 74 44 142 44 151 0 10 15 51 34 91 67 148 104 235 111 259 4
14 18 46 31 71 12 25 33 77 45 115 12 38 33 91 46 117 23 46 46 104 118 304
19 50 45 113 58 140 25 48 99 237 112 283 4 14 24 66 44 115 92 222 170 461
190 580 7 39 24 115 37 170 36 142 48 359 30 531 -13 118 -17 136 -56 213
-149 295 -366 442 -570 387z m1081 -5751 c104 -75 188 -127 224 -135 22 -6 64
-22 93 -35 35 -17 84 -28 142 -34 127 -14 164 -41 195 -148 9 -32 25 -69 34
-83 10 -14 30 -51 44 -84 60 -132 237 -346 333 -402 53 -31 104 -88 104 -116
0 -11 -9 -35 -19 -52 -11 -17 -40 -80 -65 -141 -52 -124 -61 -142 -114 -237
-24 -44 -51 -77 -76 -94 -59 -40 -211 -103 -301 -123 -44 -11 -132 -32 -195
-49 -209 -55 -626 -65 -718 -18 -17 9 -52 16 -77 16 -25 0 -62 8 -83 19 -20
10 -59 23 -87 30 -27 7 -66 25 -85 40 -19 15 -49 35 -67 44 -17 9 -42 31 -54
49 -12 18 -42 56 -65 84 -24 28 -68 91 -99 140 -156 249 -161 336 -26 513 22
30 41 60 41 66 0 6 18 41 40 77 22 36 44 86 49 110 6 25 28 84 50 131 45 97
53 103 201 148 116 35 265 120 409 232 109 85 122 89 172 52z"/>
<path d="M2937 6320 c-39 -34 -49 -54 -76 -165 -11 -44 -31 -112 -45 -150 -68
-196 -66 -695 4 -870 15 -39 33 -98 40 -130 7 -33 25 -85 40 -115 15 -30 33
-73 40 -95 7 -22 34 -81 61 -130 26 -50 62 -123 78 -162 16 -40 43 -92 59
-115 16 -24 33 -54 37 -68 4 -14 23 -55 41 -91 19 -36 34 -73 34 -83 0 -10 16
-53 35 -95 118 -261 136 -761 38 -1036 -60 -170 -78 -261 -60 -300 33 -68 79
-60 135 24 22 33 45 84 52 113 7 29 25 87 40 128 86 238 84 761 -5 1035 -37
113 -251 570 -320 685 -11 19 -43 87 -69 150 -27 63 -61 144 -76 180 -34 78
-76 259 -91 390 -26 219 21 562 97 712 73 145 11 276 -89 188z"/>
<path d="M6225 2493 c-88 -9 -163 -27 -199 -47 -23 -13 -59 -29 -81 -36 -138
-42 -315 -220 -394 -395 -72 -158 -71 -423 1 -604 59 -150 248 -345 383 -396
39 -15 95 -37 125 -48 50 -20 74 -22 250 -22 195 0 195 0 255 31 33 17 76 34
96 38 20 3 53 21 75 40 21 18 51 39 66 47 43 22 144 125 174 177 15 26 33 54
40 62 7 8 31 67 54 130 41 115 41 115 38 275 -4 157 -5 161 -37 230 -18 39
-44 94 -58 123 -46 99 -289 312 -355 312 -8 0 -50 18 -94 39 -76 37 -84 39
-194 43 -63 2 -128 2 -145 1z m256 -180 c91 -85 130 -155 170 -302 27 -105 28
-109 24 -341 -4 -231 -4 -237 -34 -324 -40 -116 -66 -159 -139 -229 l-61 -57
-129 0 c-130 0 -130 0 -201 56 -77 60 -86 73 -133 196 -36 98 -54 251 -50 448
3 215 54 401 131 483 77 82 156 116 274 117 98 0 98 0 148 -47z"/>
</g></g></g></svg>