<svg xmlns="http://www.w3.org/2000/svg" width="2048" height="2048" viewBox="0 0 2048 2048"><rect width="100%" height="100%" fill="#fff"/><g transform="translate(582.30,163.84) scale(1.16238)"><g transform="scale(1.0)"><g transform="translate(0.000000,1480.000000) scale(0.100000,-0.100000)"
fill="#000000" stroke="none">
<path d="M3413 14390 c-98 -13 -242 -72 -337 -139 -146 -103 -227 -223 -298
-436 -47 -145 -70 -158 -164 -96 -151 102 -404 108 -572 14 -114 -63 -201
-142 -285 -256 -90 -122 -229 -392 -252 -489 -9 -35 -24 -94 -35 -133 -11 -38
-29 -122 -39 -185 -11 -63 -29 -142 -41 -175 -12 -33 -34 -125 -50 -205 -16
-80 -40 -192 -53 -250 -14 -58 -28 -125 -32 -149 -4 -24 -20 -81 -35 -126 -15
-45 -31 -102 -35 -126 -4 -24 -20 -78 -35 -119 -15 -41 -33 -106 -39 -145 -16
-93 -29 -140 -111 -395 -91 -286 -127 -404 -139 -468 -6 -29 -22 -78 -35 -110
-13 -31 -29 -83 -36 -116 -6 -32 -25 -95 -40 -140 -16 -45 -36 -122 -45 -171
-9 -50 -27 -135 -40 -190 -61 -257 -90 -706 -59 -911 24 -163 16 -696 -14
-849 -11 -60 -26 -159 -31 -220 -6 -60 -20 -144 -31 -185 -12 -46 -20 -108
-20 -160 0 -47 -9 -123 -20 -170 -11 -47 -20 -111 -20 -143 0 -32 -9 -113 -19
-180 -24 -152 -41 -381 -41 -554 0 -151 49 -432 97 -552 40 -101 110 -260 144
-324 17 -32 39 -83 50 -114 10 -30 27 -69 38 -87 10 -17 26 -56 36 -86 10 -30
32 -80 50 -110 18 -30 38 -75 45 -99 6 -24 27 -74 46 -111 19 -37 34 -72 34
-77 0 -6 12 -28 27 -49 14 -21 39 -73 55 -114 16 -41 33 -79 37 -85 5 -5 18
-37 30 -70 13 -33 33 -80 47 -105 28 -53 91 -196 164 -370 28 -69 64 -154 80
-190 15 -36 35 -90 45 -120 9 -30 25 -68 35 -85 10 -16 25 -57 35 -90 9 -33
25 -71 35 -85 85 -122 186 -497 210 -780 10 -119 17 -182 40 -385 6 -49 13
-164 15 -255 2 -91 8 -316 14 -500 6 -184 13 -504 14 -710 4 -407 5 -419 60
-450 34 -19 74 -1 97 45 18 36 18 472 0 885 -6 140 -15 392 -20 560 -8 297
-15 411 -46 770 -28 327 -97 620 -188 797 -14 29 -37 81 -50 115 -45 118 -97
243 -121 293 -13 28 -35 80 -49 118 -14 37 -37 96 -51 132 -13 35 -38 88 -54
117 -16 29 -37 80 -47 113 -9 33 -29 85 -44 115 -15 30 -31 66 -35 80 -4 14
-20 45 -36 70 -16 25 -35 64 -43 87 -8 23 -26 58 -39 80 -14 21 -30 57 -36 80
-7 23 -35 86 -63 140 -118 225 -159 311 -172 360 -8 29 -25 66 -39 82 -13 16
-28 47 -32 68 -4 21 -42 124 -85 228 -90 221 -125 325 -140 415 -30 183 -22
488 20 810 11 80 29 219 40 310 11 91 32 226 46 300 14 74 30 189 34 255 5 66
14 143 19 170 33 175 44 569 21 797 -20 194 -14 608 10 727 10 53 24 141 30
196 7 56 24 138 40 185 16 47 34 114 40 150 12 76 21 109 48 172 11 25 24 68
27 95 4 26 20 80 35 118 15 39 33 98 40 130 7 33 25 90 41 127 16 37 39 114
50 170 12 57 29 119 39 138 10 20 28 75 39 123 11 48 27 100 35 115 17 33 98
353 121 477 10 50 28 118 41 152 12 35 26 91 30 125 3 35 17 96 30 137 13 40
24 83 24 95 0 38 50 279 74 356 13 41 36 127 51 190 45 189 97 331 168 467 34
63 81 125 165 217 88 95 98 103 175 133 174 69 367 35 478 -84 42 -45 47 -55
57 -126 16 -104 15 -179 -3 -273 -8 -44 -23 -146 -34 -229 -34 -256 -50 -366
-71 -470 -11 -55 -24 -145 -30 -200 -6 -54 -17 -124 -25 -155 -8 -30 -30 -170
-50 -310 -19 -140 -42 -289 -50 -330 -8 -41 -19 -120 -24 -175 -6 -55 -21
-147 -35 -205 -13 -58 -34 -193 -46 -300 -12 -107 -28 -229 -36 -270 -17 -90
-40 -290 -53 -460 -6 -69 -17 -163 -26 -210 -8 -47 -22 -168 -30 -270 -19
-234 -41 -464 -60 -605 -8 -60 -17 -155 -20 -210 -18 -309 -26 -397 -82 -820
-42 -327 -41 -358 22 -387 50 -23 84 27 109 161 9 46 18 86 20 89 8 13 35 229
41 322 3 52 14 145 25 205 11 61 24 178 30 260 6 83 17 222 26 310 32 341 65
697 79 860 8 94 26 240 39 325 13 85 27 196 31 245 4 50 20 169 35 265 16 96
36 256 45 355 9 99 25 221 36 270 11 50 31 165 44 257 14 91 34 199 45 240 11
40 25 122 30 183 6 60 17 135 25 166 16 62 25 118 60 374 13 99 33 234 44 300
11 66 23 152 26 190 3 39 15 121 26 184 10 62 19 137 19 165 0 143 46 413 91
531 90 237 146 306 319 387 94 45 257 75 315 59 79 -22 208 -139 241 -218 45
-106 46 -177 11 -703 -23 -347 -36 -744 -47 -1510 -6 -377 -15 -809 -20 -960
-6 -151 -15 -504 -20 -785 -6 -280 -15 -656 -20 -835 -5 -179 -12 -422 -16
-540 -9 -298 20 -850 56 -1068 29 -174 100 -253 166 -186 29 28 29 17 0 233
-9 68 -19 128 -22 132 -32 52 -45 866 -24 1424 5 143 14 413 20 600 5 187 12
410 15 495 3 85 10 463 15 840 11 765 28 1484 35 1545 3 22 10 130 15 240 25
490 32 596 46 694 23 160 30 166 206 159 208 -8 405 -118 474 -263 13 -27 33
-62 45 -76 11 -15 29 -55 40 -90 10 -35 25 -84 33 -109 15 -47 37 -198 56
-380 6 -58 18 -134 26 -169 8 -35 19 -138 24 -229 10 -173 28 -390 60 -707 10
-104 22 -257 25 -340 3 -82 12 -235 20 -340 52 -685 78 -1578 90 -3075 3 -352
8 -589 15 -611 17 -58 69 -91 110 -69 45 24 50 59 47 352 -1 193 2 281 10 300
24 55 98 71 196 44 29 -8 68 -17 87 -20 50 -9 141 -88 197 -171 25 -38 69 -95
96 -125 76 -83 137 -168 168 -235 15 -33 58 -99 96 -147 37 -48 81 -108 96
-135 60 -104 236 -390 270 -440 12 -17 34 -53 50 -80 15 -26 41 -68 57 -93 16
-25 43 -72 61 -104 17 -33 46 -82 65 -109 19 -27 34 -55 34 -62 0 -7 15 -35
34 -62 67 -98 165 -422 202 -671 21 -139 14 -491 -16 -747 -35 -305 -40 -510
-25 -900 20 -472 19 -624 -5 -860 -27 -256 -45 -371 -69 -434 -11 -27 -28 -87
-37 -133 -9 -46 -25 -100 -36 -121 -10 -21 -32 -72 -47 -115 -33 -87 -69 -177
-111 -272 -15 -36 -40 -101 -55 -145 -15 -44 -34 -93 -42 -109 -9 -17 -26 -59
-38 -95 -13 -36 -51 -138 -84 -226 -34 -87 -78 -218 -97 -290 -20 -71 -45
-161 -56 -200 -36 -129 -13 -225 53 -225 54 0 95 90 183 395 59 205 141 450
183 549 14 33 38 97 53 141 15 44 51 134 80 200 104 243 121 286 136 362 9 42
26 104 39 137 12 34 32 107 44 164 12 56 29 121 37 144 14 39 31 177 54 418
12 126 12 298 0 445 -25 295 -10 1023 26 1284 26 192 16 635 -18 766 -14 55
-31 129 -38 165 -6 36 -22 89 -36 119 -13 30 -31 79 -39 110 -15 56 -82 196
-166 346 -83 148 -160 278 -184 309 -12 17 -34 54 -47 81 -13 28 -39 75 -58
105 -59 95 -141 223 -181 282 -22 32 -44 69 -49 83 -18 47 -197 298 -300 420
-28 33 -78 101 -111 152 -70 105 -198 234 -276 276 -43 23 -75 30 -191 42 -77
8 -147 18 -156 21 -42 16 -44 39 -50 534 -11 938 -23 1403 -47 1810 -6 96 -14
270 -19 385 -16 341 -38 676 -59 890 -11 110 -25 274 -30 365 -13 196 -37 446
-56 585 -8 55 -19 145 -25 200 -23 203 -70 385 -120 465 -15 25 -34 62 -41 83
-7 21 -37 68 -66 105 -29 37 -69 88 -88 114 -20 26 -45 50 -55 53 -11 3 -42
22 -70 41 -116 80 -199 105 -370 114 -85 5 -162 11 -172 15 -17 7 -78 76 -118
135 -173 255 -305 328 -537 300z"/>
<path d="M6597 5640 c-25 -16 -52 -38 -59 -50 -35 -56 -302 -189 -393 -196
-33 -2 -105 -9 -160 -15 -82 -9 -114 -9 -180 4 -44 9 -106 18 -137 21 -32 3
-81 15 -110 27 -47 18 -69 20 -183 17 -129 -4 -131 -5 -220 -47 -49 -24 -104
-56 -123 -72 -18 -16 -49 -36 -70 -44 -20 -9 -54 -27 -74 -42 -66 -45 -255
-60 -413 -31 -89 16 -293 80 -430 134 -66 27 -78 28 -235 29 -133 0 -173 -3
-205 -17 -22 -9 -77 -30 -122 -47 -45 -17 -101 -40 -124 -51 -76 -39 -178 -52
-354 -45 -158 6 -161 7 -248 46 -48 21 -90 39 -94 39 -3 0 -27 13 -53 30 -26
16 -71 38 -101 49 -30 10 -79 31 -109 47 -53 28 -59 29 -195 28 -109 0 -156
-5 -210 -21 -508 -146 -623 -158 -773 -81 -71 36 -93 54 -139 111 -47 59 -58
67 -88 67 -48 0 -82 -18 -95 -51 -15 -36 -14 -38 105 -162 108 -112 142 -132
271 -157 124 -24 397 5 571 61 50 16 120 34 155 39 35 6 99 19 144 31 80 21
80 21 160 -6 78 -27 216 -89 324 -145 173 -89 231 -103 420 -104 194 -1 220 5
455 104 151 64 193 73 319 68 119 -5 146 -12 401 -103 171 -61 222 -75 266
-75 20 0 54 -7 75 -16 25 -10 50 -14 74 -9 19 3 77 12 129 20 66 10 104 21
131 39 21 14 55 32 76 41 20 8 56 30 78 48 174 141 320 158 671 75 184 -43
349 -38 500 17 288 104 505 260 505 364 0 65 -58 79 -133 31z"/>
<path d="M3045 2399 c-51 -31 -47 -68 15 -128 27 -26 54 -60 60 -75 6 -18 10
-228 10 -595 0 -645 6 -601 -85 -635 -55 -22 -70 -56 -36 -89 22 -23 213 -30
746 -26 110 1 268 1 350 1 1029 -1 1087 0 1118 21 54 35 34 77 -51 102 -28 9
-54 21 -58 27 -6 9 -8 584 -4 1180 0 10 27 46 60 81 62 67 72 94 43 119 -15
12 -67 14 -314 14 -330 -1 -329 -1 -329 -67 0 -45 18 -66 66 -75 66 -12 63 13
65 -647 2 -521 0 -600 -13 -613 -12 -12 -43 -15 -154 -15 -189 -1 -182 -1
-203 20 -18 18 -19 44 -20 557 -1 636 -2 630 68 695 42 39 51 53 51 81 0 64
-3 65 -310 63 -325 -3 -286 1 -306 -30 -22 -33 -6 -72 41 -102 72 -47 69 -23
73 -653 4 -707 26 -645 -232 -638 -117 3 -129 5 -145 24 -16 20 -17 64 -14
614 3 650 1 631 63 645 56 12 87 78 56 121 -14 18 -29 19 -263 19 -136 0 -266
3 -288 8 -26 5 -47 3 -60 -4z"/>
</g></g></g></svg>